# xmcd
#
# Track frame offsets: 
#        150
#        23410
#        42465
#        60957
#        80347
#        106667
#        126317
#        149687
#        166650
#        181782
#        203965
#        223690
#
# Disc length: 3876 seconds
#
# Revision: 2
# Processed by: cddbd v1.5.2PL0 Copyright (c) Steve Scherf et al.
# Submitted via: ExactAudioCopy v0.95b4
#
DISCID=9c0f220c
DTITLE=Goober and the Peas - The Jet-Age Genius of...
DYEAR=1994
DGENRE=Rock and Roll
TTITLE0=Cordially Invited
TTITLE1=Hurry Hurry
TTITLE2=Sentimental Tina
TTITLE3=Loose Lips
TTITLE4=One Last Kiss
TTITLE5=E-Flat
TTITLE6=It's Not Like That
TTITLE7=Jumpship
TTITLE8=Neighbors
TTITLE9=Alienation (Peer Group)
TTITLE10=Killing Is Bad
TTITLE11=Moanin'
EXTD=
EXTT0=
EXTT1=
EXTT2=
EXTT3=
EXTT4=
EXTT5=
EXTT6=
EXTT7=
EXTT8=
EXTT9=
EXTT10=
EXTT11=
PLAYORDER=
